<svg xmlns="http://www.w3.org/2000/svg" version="1.1" xmlns:xlink="http://www.w3.org/1999/xlink" xmlns:svgjs="http://svgjs.com/svgjs" width="1440" height="560" preserveAspectRatio="none" viewBox="0 0 1440 560"><g mask="url(&quot;#SvgjsMask1029&quot;)" fill="none"><rect width="1440" height="560" x="0" y="0" fill="rgba(8, 9, 27, 1)"></rect><path d="M0,494.728C91.574,498.492,172.914,436.924,242.347,377.099C305.476,322.706,342.787,248.119,375.274,171.382C406.952,96.556,446.93,17.486,428.047,-61.544C409.56,-138.916,338.485,-189.554,276.979,-240.004C223.893,-283.547,163.874,-314.443,97.646,-332.552C32.424,-350.386,-33.418,-348.895,-100.802,-343.301C-184.033,-336.392,-285.563,-357.922,-341.694,-296.08C-397.653,-234.428,-355.996,-135.245,-364.797,-52.45C-373.183,26.44,-416.998,103.754,-392.206,179.115C-366.548,257.11,-293.839,306.213,-229.872,357.688C-158.936,414.771,-90.974,490.988,0,494.728" fill="#050612"></path><path d="M1440 1114.087C1550.665 1102.846 1659.853 1104.3980000000001 1762.819 1062.316 1882.679 1013.3299999999999 2019.325 966.645 2080.281 852.406 2141.851 737.017 2117.283 593.335 2079.944 467.99 2045.7939999999999 353.35 1964.201 263.661 1879.683 179.01299999999998 1800.279 99.48700000000002 1716.848 13.850999999999999 1606.304-6.3799999999999955 1499.429-25.938999999999965 1402.497 47.138000000000034 1296.81 72.33999999999997 1183.712 99.30900000000003 1041.599 60.985000000000014 963.312 146.94799999999998 885.181 232.73899999999998 946.377 372.177 920.691 485.335 891.8 612.614 773.849 723.557 803.58 850.643 833.749 979.5989999999999 949.721 1081.826 1072.089 1132.48 1187.888 1180.415 1315.314 1126.7530000000002 1440 1114.087" fill="#0b0c25"></path></g><defs><mask id="SvgjsMask1029"><rect width="1440" height="560" fill="#ffffff"></rect></mask></defs></svg>